<?xml version="1.0" encoding="UTF-8"?>
<svg version="1.1" xmlns="http://www.w3.org/2000/svg" width="192" height="192">
<path d="M0 0 C14.20404206 9.97252431 23.00438114 22.18335089 26.5625 39.3125 C26.81355375 42.08664397 26.7810101 44.52649627 26.5625 47.3125 C27.305 47.539375 28.0475 47.76625 28.8125 48 C32.1050747 49.5714561 33.53747109 51.31245716 35.5625 54.3125 C35.5625 54.9725 35.5625 55.6325 35.5625 56.3125 C36.305 56.539375 37.0475 56.76625 37.8125 57 C42.52735701 59.25027266 44.53361614 62.66610125 46.3125 67.4375 C49.35380914 78.72413614 48.96905177 91.32026672 44.14453125 101.96484375 C41.89819531 105.29829536 39.14982055 107.51883973 35.5625 109.3125 C35.129375 110.075625 34.69625 110.83875 34.25 111.625 C32.30194886 114.72745182 30.68882141 116.3940755 27.5625 118.3125 C23.2852377 118.93464724 21.15862975 118.62202891 17.3125 116.625 C13.87730054 113.73630954 11.84493083 111.21461442 11.17481995 106.70155334 C11.16671547 105.30639748 11.16671547 105.30639748 11.15844727 103.88305664 C11.14576309 102.82167984 11.13307892 101.76030304 11.12001038 100.66676331 C11.12294601 99.53020798 11.12588165 98.39365265 11.12890625 97.22265625 C11.1236644 96.0453746 11.11842255 94.86809296 11.11302185 93.65513611 C11.10660469 91.16796659 11.10793464 88.68076672 11.11645508 86.19360352 C11.12496153 82.39218994 11.09620212 78.59228068 11.06445312 74.79101562 C11.06284091 72.37239628 11.06341904 69.95377428 11.06640625 67.53515625 C11.05517227 66.40062515 11.04393829 65.26609406 11.03236389 64.09718323 C11.08695184 57.90266756 11.28002977 53.95733686 15.5625 49.3125 C18.3125 47.9375 18.3125 47.9375 20.5625 47.3125 C18.16415892 31.45481197 12.12733373 17.79843001 -0.90625 8.0625 C-14.59524784 -1.4014985 -29.72850229 -3.86736045 -46.05859375 -1.06640625 C-59.35846605 2.52599623 -70.25531372 10.77651977 -77.375 22.50390625 C-81.74768373 30.65713946 -83.97874003 38.17093753 -85.4375 47.3125 C-84.695 47.51875 -83.9525 47.725 -83.1875 47.9375 C-79.64660688 49.70794656 -77.90603293 51.70190624 -76.4375 55.3125 C-75.84937782 59.37602914 -75.87690654 63.39979843 -75.90625 67.5 C-75.9024231 68.6758667 -75.89859619 69.8517334 -75.89465332 71.06323242 C-75.89193649 73.54444232 -75.89928151 76.02568098 -75.91601562 78.50683594 C-75.93742649 82.29947919 -75.91620404 86.090228 -75.890625 89.8828125 C-75.89326831 92.29687917 -75.89839336 94.71094467 -75.90625 97.125 C-75.89815308 98.25639404 -75.89005615 99.38778809 -75.88171387 100.5534668 C-75.95555435 106.7688066 -76.21765163 110.61338907 -80.4375 115.3125 C-83.17768076 117.4758006 -84.92402151 118.23602448 -88.375 118.75 C-92.32794945 118.18529294 -94.36572911 116.83817829 -97.4375 114.3125 C-98.4375 112.64583333 -99.4375 110.97916667 -100.4375 109.3125 C-101.38625 108.755625 -102.335 108.19875 -103.3125 107.625 C-108.4006846 103.8597434 -110.47028762 98.21413715 -112.4375 92.3125 C-112.69133665 89.10877378 -112.66884838 85.90024178 -112.6875 82.6875 C-112.708125 81.82253906 -112.72875 80.95757812 -112.75 80.06640625 C-112.80502785 70.89051185 -110.80240661 63.98049741 -104.4375 57.3125 C-103.2309375 56.0440625 -103.2309375 56.0440625 -102 54.75 C-94.18108974 47.3125 -94.18108974 47.3125 -91.4375 47.3125 C-91.52 46.260625 -91.6025 45.20875 -91.6875 44.125 C-91.61320028 30.08235265 -83.47511367 16.61085838 -74.07421875 6.69921875 C-65.34149007 -1.20551788 -55.91110664 -5.94167961 -44.4375 -8.6875 C-43.7775 -8.87828125 -43.1175 -9.0690625 -42.4375 -9.265625 C-27.98470303 -12.31426186 -12.21038002 -7.70062294 0 0 Z " fill="#0E1211" transform="translate(128.4375,41.6875)"/>
<path d="M0 0 C1.36125 0.8971875 1.36125 0.8971875 2.75 1.8125 C3.4925 2.204375 4.235 2.59625 5 3 C6.95511806 2.21595564 6.95511806 2.21595564 9 1 C15.60378146 -2.40119571 20.55040312 -4.26807927 28.03125 -2.52734375 C34.3170316 -0.50864081 39.20605367 3.08011077 42.66796875 8.71484375 C45.40450575 15.46389835 45.08173942 23.9243555 43.2265625 30.9140625 C38.7202115 40.98144239 29.5839173 47.85718606 20.7421875 53.96875 C16.93503613 56.78886212 13.62695092 60.05552257 10.2890625 63.41015625 C8 65 8 65 5.4609375 64.9609375 C2.66771358 63.87025006 1.14810859 62.64767572 -1 60.5625 C-4.66550422 57.14136273 -8.48686123 54.05998581 -12.5 51.0625 C-22.66467047 43.34343124 -31.05619945 36.1541173 -32.875 22.9375 C-33.34847149 15.0827294 -31.51726358 9.88377967 -26.5859375 3.76171875 C-19.00382253 -4.66077842 -9.77507074 -4.80178913 0 0 Z " fill="#050908" transform="translate(90,93)"/>
<path d="M0 0 C2.26114466 1.64060667 2.92345169 2.53488454 3.38095093 5.31469727 C3.38333771 6.22276123 3.38572449 7.1308252 3.38818359 8.06640625 C3.40236832 9.6131604 3.40236832 9.6131604 3.4168396 11.19116211 C3.41076691 12.30370361 3.40469421 13.41624512 3.3984375 14.5625 C3.40274277 16.27675171 3.40274277 16.27675171 3.40713501 18.02563477 C3.40917757 20.44320165 3.40363438 22.86078499 3.39111328 25.27832031 C3.37506321 28.98540085 3.39095641 32.691391 3.41015625 36.3984375 C3.40817385 38.74479408 3.40433025 41.09114998 3.3984375 43.4375 C3.40754654 45.10631226 3.40754654 45.10631226 3.4168396 46.80883789 C3.40738312 47.84000732 3.39792664 48.87117676 3.38818359 49.93359375 C3.38579681 50.84165771 3.38341003 51.74972168 3.38095093 52.68530273 C2.92332911 55.46586028 2.25873392 56.35583766 0 58 C-3 58.4375 -3 58.4375 -6 58 C-8.85522957 55.06563749 -9.37735233 52.94198632 -9.38818359 48.91186523 C-9.39764008 47.90079208 -9.40709656 46.88971893 -9.4168396 45.8480072 C-9.41076691 44.76250076 -9.40469421 43.67699432 -9.3984375 42.55859375 C-9.40130768 41.43937027 -9.40417786 40.32014679 -9.40713501 39.16700745 C-9.40917551 36.80249526 -9.40364671 34.43796618 -9.39111328 32.07348633 C-9.37504519 28.44769718 -9.39097106 24.82302029 -9.41015625 21.19726562 C-9.40817411 18.9010392 -9.40433105 16.60481347 -9.3984375 14.30859375 C-9.40451019 13.22106308 -9.41058289 12.13353241 -9.4168396 11.01304626 C-9.40738312 10.00512527 -9.39792664 8.99720428 -9.38818359 7.95874023 C-9.38579681 7.07145737 -9.38341003 6.1841745 -9.38095093 5.27000427 C-8.474806 -0.1295176 -4.90803568 -0.61350446 0 0 Z " fill="#F1F2F2" transform="translate(155,95)"/>
<path d="M0 0 C2.81702038 2.90649144 3.37720879 4.99249459 3.38818359 8.98046875 C3.39764008 9.96829346 3.40709656 10.95611816 3.4168396 11.97387695 C3.41076691 13.03437256 3.40469421 14.09486816 3.3984375 15.1875 C3.40274277 16.82948364 3.40274277 16.82948364 3.40713501 18.50463867 C3.40917552 20.81787636 3.40364662 23.1311313 3.39111328 25.44433594 C3.37506018 28.98672031 3.3909632 32.52796365 3.41015625 36.0703125 C3.40817382 38.31771085 3.40433014 40.5651085 3.3984375 42.8125 C3.40451019 43.87299561 3.41058289 44.93349121 3.4168396 46.02612305 C3.40738312 47.01394775 3.39792664 48.00177246 3.38818359 49.01953125 C3.38579681 49.88682861 3.38341003 50.75412598 3.38095093 51.64770508 C2.91396475 54.53125029 2.02274531 55.91301051 0 58 C-3.12277877 58.45540524 -5.05306195 58.68928875 -7.66323853 56.78930664 C-9.44692407 54.40177494 -9.38038921 52.89901253 -9.38818359 49.93359375 C-9.39764008 48.90242432 -9.40709656 47.87125488 -9.4168396 46.80883789 C-9.41076691 45.69629639 -9.40469421 44.58375488 -9.3984375 43.4375 C-9.40130768 42.29466553 -9.40417786 41.15183105 -9.40713501 39.97436523 C-9.40917757 37.55679835 -9.40363438 35.13921501 -9.39111328 32.72167969 C-9.37506321 29.01459915 -9.39095641 25.308609 -9.41015625 21.6015625 C-9.40817385 19.25520592 -9.40433025 16.90885002 -9.3984375 14.5625 C-9.40451019 13.4499585 -9.41058289 12.33741699 -9.4168396 11.19116211 C-9.40738312 10.15999268 -9.39792664 9.12882324 -9.38818359 8.06640625 C-9.38579681 7.15834229 -9.38341003 6.25027832 -9.38095093 5.31469727 C-8.49477206 -0.06981725 -4.93347267 -0.71946476 0 0 Z " fill="#F1F1F1" transform="translate(43,95)"/>
<path d="M0 0 C1.65 0 3.3 0 5 0 C6.07990866 22.82760775 6.07990866 22.82760775 0 30 C-3.125 32.3125 -3.125 32.3125 -6 34 C-7.03013277 35.64821244 -8.03114628 37.31503702 -9 39 C-11.85049332 41.92967369 -13.3629947 42.90734468 -17.4375 43.5 C-21.62737021 42.91194804 -23.73951177 41.65388577 -27 39 C-29 36 -29 36 -29 32 C-22.125 33.875 -22.125 33.875 -21 35 C-16.9240605 35.43819695 -16.9240605 35.43819695 -13.33666992 33.8034668 C-11.5711273 31.42135476 -11.57350154 29.8431532 -11.48828125 26.89453125 C-11.45283203 25.91162109 -11.41738281 24.92871094 -11.38085938 23.91601562 C-11.35830078 22.89185547 -11.33574219 21.86769531 -11.3125 20.8125 C-11.27833984 19.77673828 -11.24417969 18.74097656 -11.20898438 17.67382812 C-11.12647358 15.1159934 -11.05733428 12.55850277 -11 10 C-9.68 10.33 -8.36 10.66 -7 11 C-7 16.28 -7 21.56 -7 27 C-6.34 27 -5.68 27 -5 27 C-4.79503906 26.37351563 -4.59007812 25.74703125 -4.37890625 25.1015625 C-4.10949219 24.28429687 -3.84007812 23.46703125 -3.5625 22.625 C-3.29566406 21.81289062 -3.02882812 21.00078125 -2.75390625 20.1640625 C-2 18 -2 18 -1 16 C-0.7677354 13.28737884 -0.58063765 10.59226874 -0.4375 7.875 C-0.39431641 7.12089844 -0.35113281 6.36679688 -0.30664062 5.58984375 C-0.2005168 3.72678112 -0.09974999 1.86341476 0 0 Z " fill="#080C0B" transform="translate(170,117)"/>
<path d="M0 0 C0.99 0 1.98 0 3 0 C4.26922942 2.53845885 4.14471693 4.47361713 4.25 7.3125 C4.77116316 14.3695618 6.85125918 20.67309087 10 27 C10.66 27.33 11.32 27.66 12 28 C12 22.72 12 17.44 12 12 C13.32 12.66 14.64 13.32 16 14 C16.01981934 14.58491211 16.03963867 15.16982422 16.06005859 15.77246094 C16.15553481 18.43208025 16.26512142 21.09093838 16.375 23.75 C16.4059375 24.67039063 16.436875 25.59078125 16.46875 26.5390625 C16.50742187 27.42851562 16.54609375 28.31796875 16.5859375 29.234375 C16.63306885 30.45979004 16.63306885 30.45979004 16.68115234 31.70996094 C17.02343693 34.16832958 17.7739277 35.85759999 19 38 C18.01 38.99 17.02 39.98 16 41 C14.0625 40.1875 14.0625 40.1875 12 39 C11.505 37.515 11.505 37.515 11 36 C10.0925 35.484375 9.185 34.96875 8.25 34.4375 C2.96620867 31.17810101 0.8857471 24.65724131 -1 19 C-1.31823197 12.5979215 -1.1468252 6.30753861 0 0 Z " fill="#0B0F0E" transform="translate(17,115)"/>
<path d="M0 0 C0.33 0 0.66 0 1 0 C1.10152851 7.58044988 1.17151993 15.160724 1.21972656 22.74169922 C1.23982563 25.31989088 1.26710941 27.89803704 1.30175781 30.47607422 C1.35034847 34.18468461 1.37298658 37.89269156 1.390625 41.6015625 C1.41127014 42.75177887 1.43191528 43.90199524 1.45318604 45.08706665 C1.45494237 51.36929501 1.29562048 55.26296748 -3 60 C-5.78477587 62.19850726 -7.47767798 62.93470975 -11 63.375 C-14.35669186 62.95541352 -16.25852831 61.93515649 -19 60 C-18.1875 58.0625 -18.1875 58.0625 -17 56 C-14 55 -14 55 -10.9375 55.125 C-9.4834375 55.063125 -9.4834375 55.063125 -8 55 C-5.89172945 51.83759418 -5.66182535 50.49342531 -5.375 46.8125 C-5.30023438 45.91144531 -5.22546875 45.01039063 -5.1484375 44.08203125 C-5.09945312 43.39496094 -5.05046875 42.70789063 -5 42 C-3.35 42 -1.7 42 0 42 C0 28.14 0 14.28 0 0 Z " fill="#111413" transform="translate(51,97)"/>
<path d="M0 0 C5.84095616 5.84095616 6.41100749 10.85688919 6.4375 18.75 C6.44136719 19.5426123 6.44523438 20.33522461 6.44921875 21.15185547 C6.32121695 27.67061403 4.79057658 32.61196614 1 38 C0.67 38 0.34 38 0 38 C0 25.46 0 12.92 0 0 Z " fill="#E5E6E5" transform="translate(164,105)"/>
<path d="M0 0 C0.33 0 0.66 0 1 0 C1 12.54 1 25.08 1 38 C-4.40516227 32.59483773 -5.20129408 27.41108017 -5.3125 20 C-5.1377493 12.5730954 -4.45969863 6.2047981 0 0 Z " fill="#F0F0F0" transform="translate(27,105)"/>
<path d="M0 0 C0.33 0 0.66 0 1 0 C1 17.82 1 35.64 1 54 C0.67 53.34 0.34 52.68 0 52 C-2.97 52.495 -2.97 52.495 -6 53 C-5.67 49.37 -5.34 45.74 -5 42 C-3.35 42 -1.7 42 0 42 C0 28.14 0 14.28 0 0 Z " fill="#282A29" transform="translate(51,97)"/>
<path d="M0 0 C0.33 0 0.66 0 1 0 C1 8.58 1 17.16 1 26 C1.66 26 2.32 26 3 26 C4.10789535 21.94691667 4.33731267 17.92888626 4.5625 13.75 C4.62727539 12.63238281 4.62727539 12.63238281 4.69335938 11.4921875 C4.79896725 9.661651 4.89994201 7.83084824 5 6 C5.33 6 5.66 6 6 6 C6.33 18.87 6.66 31.74 7 45 C6.34 45 5.68 45 5 45 C5 39.72 5 34.44 5 29 C3.68 28.67 2.36 28.34 1 28 C1.25124634 28.85609863 1.25124634 28.85609863 1.50756836 29.72949219 C2.01544704 32.07122332 2.03219754 33.94359387 1.87890625 36.328125 C1.83056641 37.12734375 1.78222656 37.9265625 1.73242188 38.75 C1.67634766 39.575 1.62027344 40.4 1.5625 41.25 C1.51029297 42.09046875 1.45808594 42.9309375 1.40429688 43.796875 C1.27504311 45.8649352 1.13825726 47.9325222 1 50 C0.67 50 0.34 50 0 50 C0 33.5 0 17 0 0 Z " fill="#282B2A" transform="translate(158,99)"/>
<path d="M0 0 C0.33 0 0.66 0 1 0 C1 13.86 1 27.72 1 42 C2.65 42 4.3 42 6 42 C6.33 45.63 6.66 49.26 7 53 C5.02 52.67 3.04 52.34 1 52 C0.67 52.66 0.34 53.32 0 54 C0 36.18 0 18.36 0 0 Z " fill="#272A29" transform="translate(140,97)"/>
<path d="M0 0 C1.66539562 0.47582732 3.33026278 0.95359434 4.9921875 1.44140625 C6.87341564 1.96478295 8.7805658 2.39232806 10.6875 2.8125 C14.50256581 4.1801651 15.80365382 5.6615538 18 9 C14.24543433 11.50304378 12.45254066 11.45280074 8 11 C4.29609979 8.97333762 2.34636989 7.51955484 0 4 C0 2.68 0 1.36 0 0 Z " fill="#131716" transform="translate(141,149)"/>
<path d="M0 0 C1.32 0.33 2.64 0.66 4 1 C4 2.32 4 3.64 4 5 C2.68 5 1.36 5 0 5 C0 6.32 0 7.64 0 9 C-1.65 9 -3.3 9 -5 9 C-4.67 7.35 -4.34 5.7 -4 4 C-3.01 4 -2.02 4 -1 4 C-0.67 2.68 -0.34 1.36 0 0 Z " fill="#1C1F1E" transform="translate(79,108)"/>
<path d="M0 0 C0.33 0 0.66 0 1 0 C1 12.54 1 25.08 1 38 C-1 36 -1 36 -1.21118164 32.97485352 C-1.19434326 31.70569092 -1.17750488 30.43652832 -1.16015625 29.12890625 C-1.15495468 28.45077377 -1.14975311 27.7726413 -1.14439392 27.07395935 C-1.12655945 24.90325662 -1.09539762 22.73302271 -1.0625 20.5625 C-1.03486394 18.39559286 -1.01014094 16.22875441 -0.99131775 14.06175232 C-0.97346068 12.09261207 -0.94606172 10.1235653 -0.91821289 8.15454102 C-0.84734525 4.97207511 -0.84734525 4.97207511 -2 2 C-1.34 1.34 -0.68 0.68 0 0 Z " fill="#E0E0E0" transform="translate(27,105)"/>
<path d="M0 0 C2.475 0.99 2.475 0.99 5 2 C5 2.99 5 3.98 5 5 C1.91190305 6.76462683 0.76687864 7 -3 7 C-3.33 7.66 -3.66 8.32 -4 9 C-4.33 7.68 -4.66 6.36 -5 5 C-3.68 4.67 -2.36 4.34 -1 4 C-0.67 2.68 -0.34 1.36 0 0 Z " fill="#1B1E1D" transform="translate(66,121)"/>
<path d="M0 0 C0.33 0 0.66 0 1 0 C1 1.98 1 3.96 1 6 C1.66 6 2.32 6 3 6 C3.33 5.01 3.66 4.02 4 3 C6.35953094 5.35953094 6.49141413 6.77895617 7 10 C4.03 9.505 4.03 9.505 1 9 C0.67 9.66 0.34 10.32 0 11 C0 7.37 0 3.74 0 0 Z " fill="#363837" transform="translate(140,140)"/>
<path d="M0 0 C2.75 0.25 2.75 0.25 5 1 C4.01 1.33 3.02 1.66 2 2 C2 3.32 2 4.64 2 6 C1.01 6.33 0.02 6.66 -1 7 C-1.99 6.01 -2.98 5.02 -4 4 C-2.3125 1.9375 -2.3125 1.9375 0 0 Z " fill="#272928" transform="translate(36,152)"/>
<path d="M0 0 C1.32 0 2.64 0 4 0 C4 1.65 4 3.3 4 5 C2.35 5.33 0.7 5.66 -1 6 C-1.042721 4.33388095 -1.04063832 2.66617115 -1 1 C-0.67 0.67 -0.34 0.34 0 0 Z " fill="#0D100F" transform="translate(142,140)"/>
<path d="M0 0 C0.66 0 1.32 0 2 0 C2.66 1.65 3.32 3.3 4 5 C3.34 5 2.68 5 2 5 C1.67 5.66 1.34 6.32 1 7 C0.34 6.67 -0.32 6.34 -1 6 C-1 5.34 -1 4.68 -1 4 C-1.66 3.67 -2.32 3.34 -3 3 C-2.01 2.67 -1.02 2.34 0 2 C0 1.34 0 0.68 0 0 Z " fill="#151817" transform="translate(71,116)"/>
<path d="M0 0 C0.99 0 1.98 0 3 0 C3.33 1.65 3.66 3.3 4 5 C2.35 5 0.7 5 -1 5 C-1.33 4.01 -1.66 3.02 -2 2 C-1.34 1.34 -0.68 0.68 0 0 Z " fill="#1C1F1E" transform="translate(171,112)"/>
</svg>
